{"title":"CHRISTMAS WITH THE KRANKS 2004 IN H.264 BY WINKER","uid":5145183,"size":839415397,"categoryP":"video","categoryS":"movies","magnet":"?xt=urn:btih:e1f5bce2ae138b78792a12f7b5485a136e93727a&amp;dn=CHRISTMAS+WITH+THE+KRANKS+2004+IN+H.264+BY+WINKER&amp;tr=udp%3A%2F%2Ftracker.openbittorrent.com%3A80&amp;tr=udp%3A%2F%2Fopen.demonii.com%3A1337&amp;tr=udp%3A%2F%2Ftracker.coppersurfer.tk%3A6969&amp;tr=udp%3A%2F%2Fexodus.desync.com%3A6969","seeders":1,"leechers":0,"uploader":"alanwatson","files":-1,"time":1257222751,"description":" &lt;a href=&quot;http://www.imdb.com/title/tt0388419/&quot; rel=&quot;nofollow&quot; target=&quot;_NEW&quot;&gt;http://www.imdb.com/title/tt0388419/&lt;/a&gt;\n\n\nNo! Ho! Ho!\n\nThe Kranks have always celebrated a picture-perfect Christmas. But with their only daughter, Blair (Julie Gonzalo), away from home on her Peace Corps assignment, Nora (Jamie Lee Curtis) and Luther (Tim Allen) are suffering from empty nest syndrome and decide to skip Christmas in favor of a Caribbean cruise. But their neighbours, led by Vic Frohmeyer (Dan Akroyd), take Christmas very seriously and are none too happy about the Kranks' boycott. In this neighbourhood where every house is decorated to the hilt and has a Frosty on the roof, skipping Christmas is virtually a crime. And just as the Kranks are preparing for their Christmas Day departure, they get a call from their daughter who announces that she is coming home for Christmas after all.\n\nSuddenly, all systems are go for their annual Christmas Eve party and a normal--highly festive--holiday. Will the Kranks be able to pull together a perfect Christmas for Blair in just a few hours, or will she discover their plan to skip Christmas?\n\nAn all-star cast populate this festive comedy, boasting a hilarious screenplay from family movie maestro, Chris Columbus. Based on the novel Skipping Christmas by John Grisham!\n\nFormat : MPEG-4\nFormat profile : Base Media / Version 2\nCodec ID : mp42\nFile size : 799 MiB\nDuration : 1h 34mn\nOverall bit rate : 1 178 Kbps\nEncoded date : UTC 2009-11-02 04:40:46\nTagged date : UTC 2009-11-02 09:11:39\nWriting application : HandBrake 0.9.3 2008112300\n\nVideo\nID : 1\nFormat : AVC\nFormat/Info : Advanced Video Codec\nFormat profile : &lt;a class=&quot;__cf_email__&quot; href=&quot;/cdn-cgi/l/email-protection&quot; data-cfemail=&quot;e6ab878f88a6aad2c8d6&quot;&gt;[email&amp;#160;protected]&lt;/a&gt;&lt;script cf-hash='f9e31' type=&quot;text/javascript&quot;&gt;\n/* &lt;![CDATA[ */!function(){try{var t=&quot;currentScript&quot;in document?document.currentScript:function(){for(var t=document.getElementsByTagName(&quot;script&quot;),e=t.length;e--;)if(t[e].getAttribute(&quot;cf-hash&quot;))return t[e]}();if(t&amp;&amp;t.previousSibling){var e,r,n,i,c=t.previousSibling,a=c.getAttribute(&quot;data-cfemail&quot;);if(a){for(e=&quot;&quot;,r=parseInt(a.substr(0,2),16),n=2;a.length-n;n+=2)i=parseInt(a.substr(n,2),16)^r,e+=String.fromCharCode(i);e=document.createTextNode(e),c.parentNode.replaceChild(e,c)}}}catch(u){}}();/* ]]&gt; */&lt;/script&gt;\nFormat settings, CABAC : Yes\nFormat settings, ReFrames : 3 frames\nCodec ID : avc1\nCodec ID/Info : Advanced Video Coding\nDuration : 1h 34mn\nBit rate mode : Variable\nBit rate : 1 014 Kbps\nWidth : 718 pixels\nHeight : 428 pixels\nDisplay aspect ratio : 2.35:1\nFrame rate mode : Variable\nFrame rate : 25.000 fps\nMinimum frame rate : 12.500 fps\nMaximum frame rate : 25.000 fps\nResolution : 24 bits\nColorimetry : 4:2:0\nScan type : Progressive\nBits/(Pixel*Frame) : 0.132\nStream size : 688 MiB (86%)\nWriting library : x264 core 65\n\n\nAudio\nID : 2\nFormat : AAC\nFormat/Info : Advanced Audio Codec\nFormat version : Version 4\nFormat profile : LC\nFormat settings, SBR : No\nCodec ID : 40\nDuration : 1h 34mn\nBit rate mode : Variable\nBit rate : 160 Kbps\nMaximum bit rate : 213 Kbps\nChannel(s) : 2 channels\nChannel positions : L R\nSampling rate : 48.0 KHz\nResolution : 16 bits\nStream size : 108 MiB (14%)\nLanguage : English\nEncoded date : UTC 2009-11-02 04:40:46\nTagged date : UTC 2009-11-02 09:11:37","torrent":{"xt":"urn:btih:e1f5bce2ae138b78792a12f7b5485a136e93727a","amp;dn":"CHRISTMAS+WITH+THE+KRANKS+2004+IN+H.264+BY+WINKER","amp;tr":["udp%3A%2F%2Ftracker.openbittorrent.com%3A80","udp%3A%2F%2Fopen.demonii.com%3A1337","udp%3A%2F%2Ftracker.coppersurfer.tk%3A6969","udp%3A%2F%2Fexodus.desync.com%3A6969"],"infoHash":"e1f5bce2ae138b78792a12f7b5485a136e93727a","infoHashBuffer":{"type":"Buffer","data":[225,245,188,226,174,19,139,120,121,42,18,247,181,72,90,19,110,147,114,122]},"announce":[],"urlList":[]}}